<svg width="53" height="63" viewBox="0 0 53 63" fill="none" xmlns="http://www.w3.org/2000/svg">
<path d="M30.4902 29.2737C30.0957 28.7952 29.7176 28.354 29.3628 27.8965C29.3091 27.8265 29.3301 27.6608 29.3698 27.5557C29.8553 26.2439 30.3525 24.9345 30.8403 23.625C31.5732 21.655 32.3458 19.6966 33.0204 17.7056C33.7673 15.5045 34.1291 13.2287 33.9704 10.8945C33.9097 9.98885 33.758 9.08086 33.2772 8.28958C32.6796 7.30923 31.8673 6.55763 30.7399 6.20984C30.5322 6.14448 30.3081 6.13281 29.9953 6.07913C30.6536 5.18047 31.2815 4.31917 31.5779 3.25712C30.894 3.51155 30.4622 4.10209 29.8996 4.58059C29.5658 3.98305 29.2881 3.37617 28.7069 2.98403C28.6835 3.99939 28.9893 4.93072 29.3884 5.86205C29.0407 5.88539 28.7022 5.91107 28.3661 5.92741C26.5711 6.0161 25.271 6.90309 24.3513 8.41095C23.6114 9.62472 23.343 10.9739 23.1352 12.3557C22.7851 14.6852 23.0629 16.9797 23.4317 19.2741C23.7748 21.4052 24.1342 23.5363 24.4844 25.6674C24.5241 25.9078 24.6314 26.2019 24.5357 26.3747C24.461 26.5077 24.1156 26.496 23.8892 26.5334C22.7291 26.7295 21.6367 27.1123 20.626 27.7121C20.4323 27.8265 20.2969 27.7775 20.1405 27.6655C18.9664 26.8322 17.881 25.8915 16.952 24.7944C15.8456 23.4873 14.7976 22.1288 13.7239 20.7937C13.0096 19.9067 12.2557 19.0477 11.2263 18.5342C10.0032 17.925 8.70544 17.7103 7.48234 18.5085C6.31993 19.2671 5.97914 20.4296 6.16821 21.7694C6.27558 22.5373 6.58836 23.2282 6.98983 23.8818C7.90249 25.371 9.08824 26.6104 10.4724 27.6655C11.6862 28.5898 12.9653 29.4091 14.3424 30.0673C14.3891 30.0906 14.4311 30.121 14.4521 30.2167C14.0087 30.0883 13.5582 29.9833 13.124 29.8269C10.4631 28.8722 8.17325 27.376 6.45297 25.1002C5.58467 23.9518 5.0198 22.6563 5.0338 21.1952C5.03847 20.6536 5.23221 20.1028 5.39793 19.5752C5.52164 19.1854 5.53798 19.1668 5.14818 19.1108C4.5623 19.0244 3.97643 18.931 3.39756 18.8073C3.09645 18.742 2.80935 18.6066 2.51758 18.5015C2.51758 18.4665 2.51758 18.4292 2.51991 18.3942C3.13847 18.3521 3.75702 18.3101 4.41992 18.2658C4.27053 17.6122 4.12815 16.9937 3.98577 16.3728C4.01378 16.3611 4.04412 16.3518 4.07213 16.3401C4.74437 17.0824 5.18086 17.9763 5.65002 18.966C6.0515 18.3545 6.62103 18.0557 6.73774 17.2878C7.02484 15.3784 7.68308 13.5601 8.46269 11.7955C9.07424 10.4113 9.81183 9.09486 10.6965 7.86243C12.3584 5.5446 14.4521 3.70995 16.9707 2.39582C19.5546 1.04434 22.3206 0.288071 25.2476 0.0896675C27.1873 -0.0433797 29.12 -0.0457138 31.048 0.201707C33.2258 0.481807 35.3102 1.10269 37.3036 2.02235C40.0486 3.28747 42.4061 5.0801 44.4181 7.32557C46.7243 9.89548 48.2578 12.8785 48.9627 16.2584C49.3805 18.2611 49.5463 20.2965 49.3502 22.3412C49.1355 24.603 48.5893 26.7831 47.7046 28.8886C46.4162 31.9556 44.5512 34.6586 42.5461 37.2729C41.19 39.0398 39.7475 40.7414 38.3586 42.485C36.7527 44.4994 35.1655 46.5278 33.5713 48.5515C33.3729 48.8013 33.1838 49.058 33.0181 49.2798C32.5419 48.953 32.1101 48.6752 31.7039 48.3648C31.5919 48.2784 31.4845 48.0964 31.4892 47.961C31.5732 45.3187 31.6736 42.6741 31.774 40.0318C31.774 40.0015 31.7903 39.9711 31.7973 39.9408C32.5186 40.529 33.2351 41.1149 33.9494 41.7008C33.9914 41.6634 34.0334 41.6284 34.0754 41.5911C33.8537 40.9305 33.3472 40.4193 33.0204 39.7844C33.6273 39.5113 34.2365 39.2382 34.8434 38.9628C34.8294 38.9138 34.8154 38.8648 34.8037 38.8134C33.8117 38.608 32.8453 38.8858 31.8463 39.0585C31.8463 38.636 31.823 38.2345 31.851 37.8377C31.949 36.3929 31.9654 34.9504 31.7693 33.5125C31.7389 33.2931 31.7973 33.2091 32.0424 33.1764C34.778 32.8099 37.4156 32.1167 39.8852 30.8492C41.8949 29.8175 43.4541 28.319 44.5208 26.3233C44.9713 25.4807 45.3121 24.596 45.1394 23.6227C45.0507 23.1302 44.8406 22.6587 44.6819 22.1685C45.5128 21.7974 46.4255 21.3889 47.3382 20.9804C47.3241 20.9244 47.3101 20.866 47.2961 20.81C46.6192 20.642 45.9493 20.9057 45.2794 20.9407C45.2794 20.4342 45.2864 19.9464 45.2747 19.4609C45.2701 19.3068 45.2094 19.1551 45.1767 19.001C45.0717 19.1178 44.92 19.2158 44.8663 19.3512C44.6282 19.9534 44.4181 20.5673 44.1987 21.1765C44.1474 21.3212 44.096 21.4636 44.0306 21.6456C43.8229 21.5033 43.6502 21.3866 43.4798 21.2698C42.6395 20.684 41.7268 20.621 40.7511 20.8334C39.7241 21.0574 38.8955 21.641 38.1672 22.3319C36.7457 23.6787 35.3849 25.0885 34.0054 26.4774C32.9434 27.5464 31.767 28.4707 30.4902 29.276V29.2737Z" fill="#404D31"/>
<path d="M17.6083 50.1066C17.795 50.2117 17.9701 50.3634 18.1731 50.4171C18.9084 50.6108 19.6507 50.7719 20.3906 50.9422C20.498 50.9679 20.6077 50.9889 20.715 51.0123C20.4816 51.6028 20.1805 52.1607 20.0405 52.7582C19.8141 53.7339 19.6086 54.7306 19.541 55.7273C19.3846 58.0358 19.709 60.3069 20.2762 62.5477C20.3089 62.6761 20.3346 62.8045 20.3766 63.0005C20.1082 63.0005 19.8794 63.0005 19.6507 63.0005C13.7032 62.9959 7.75578 62.9935 1.80833 62.9889C1.48388 62.9889 1.15944 62.9889 0.834988 62.9982C0.487198 63.0052 0.225772 62.8581 0.067049 62.5547C-0.0963423 62.2419 0.067049 61.9898 0.256116 61.7587C1.36484 60.4096 2.47824 59.0628 3.5893 57.716C6.26425 54.4785 8.9392 51.241 11.6141 48.0035C13.6822 45.5013 15.7526 42.9968 17.8207 40.4945C18.0914 40.1654 18.3715 39.8433 18.6166 39.4979C18.689 39.3952 18.7053 39.2084 18.668 39.08C18.1778 37.3504 17.7226 35.6208 18.0214 33.7955C18.1008 33.31 18.1778 32.8245 18.2688 32.3413C18.2992 32.1826 18.3692 32.0285 18.4509 31.8792C18.0681 34.0289 18.4719 36.0736 19.3122 38.0343C19.7417 39.0404 20.3019 39.988 20.8177 40.9567C21.6277 42.4762 22.447 43.9934 23.2663 45.5083C23.4857 45.9121 23.7284 46.3019 23.9455 46.7057C24.0506 46.9018 24.1813 46.9088 24.3633 46.8481C25.8899 46.3439 27.4047 46.4046 28.8939 46.9858C29.3024 47.1469 29.6806 47.3897 30.061 47.6254C26.5364 47.0885 23.4133 47.7094 21.0208 50.6972C20.5563 49.6094 20.0615 48.6314 19.2935 47.6978C19.1745 48.5147 19.4523 49.1659 19.632 49.8802C18.9621 49.9105 18.3015 49.9409 17.641 49.9712C17.6293 50.0156 17.6153 50.0599 17.6036 50.1066H17.6083Z" fill="#404D31"/>
<path d="M48.8905 45.9166C49.1846 45.9166 49.3597 45.9166 49.5371 45.9166C50.298 45.9189 51.0613 45.9096 51.8223 45.9306C52.3988 45.9469 52.5925 46.136 52.5995 46.7055C52.6159 47.8703 52.6112 49.035 52.6135 50.2021C52.6205 53.9905 52.6275 57.7765 52.6299 61.5648C52.6299 61.8449 52.6252 62.1273 52.5855 62.4028C52.5412 62.7249 52.3311 62.921 52.0067 62.9653C51.8082 62.991 51.6052 62.9933 51.4021 62.9933C46.1946 62.9956 40.9847 62.998 35.7772 63.0003C35.4995 63.0003 35.2217 63.0003 34.8926 63.0003C34.9696 62.6525 35.0443 62.3748 35.091 62.0947C35.5952 59.1536 35.8472 56.2079 35.1914 53.2529C35.1657 53.1338 35.1563 52.9984 35.0957 52.8981C34.9276 52.6226 35.0186 52.4896 35.2941 52.3705C37.2547 51.5256 39.2154 50.6759 41.1691 49.8146C42.8591 49.07 44.5467 48.3138 46.0475 47.219C47.1096 46.4441 48.0059 45.5268 48.4587 44.2383C49.103 42.4083 48.5077 40.6227 47.1679 39.3833C46.5821 38.8417 45.9262 38.4333 45.1349 38.2675C45.0438 38.2489 44.9575 38.2045 44.8291 38.1578C46.0335 37.9011 47.4107 38.5336 48.7878 39.9551C49.3831 39.1569 49.9783 38.3586 50.5735 37.5626C50.6248 37.5883 50.6738 37.614 50.7252 37.6396C50.5151 38.2442 50.305 38.8511 50.088 39.4743C50.7135 39.5887 51.3111 39.7007 51.9926 39.8268C51.031 40.2726 50.0576 40.1956 49.0586 40.3356C50.1463 42.2076 50.0179 44.0516 48.8859 45.9189L48.8905 45.9166Z" fill="#404D31"/>
<path d="M25.8362 55.4489C26.4757 55.5096 27.1153 55.5726 27.7782 55.6356C27.7315 55.0007 27.6872 54.3868 27.6428 53.773C27.6755 53.766 27.7082 53.759 27.7409 53.752C28.3734 54.6273 28.6185 55.6566 28.9126 56.749C27.7595 56.5483 26.7605 56.1118 25.7988 55.5796C25.8105 55.5353 25.8245 55.4932 25.8362 55.4489Z" fill="#404D31"/>
<path d="M30.6515 14.9538C30.243 13.9127 30.0376 12.8857 30.0166 11.8213C30.0469 11.8073 30.0773 11.791 30.1076 11.777C30.3971 12.3115 30.6888 12.846 30.9969 13.4132C31.5245 13.0211 32.0427 12.6359 32.5632 12.2508C32.199 13.3362 31.4218 14.0995 30.6538 14.9538H30.6515Z" fill="#404D31"/>
<path d="M41.6108 46.9873C40.5581 46.5181 39.6221 46.0303 38.7725 45.2483C39.482 45.2343 40.0469 45.5424 40.7051 45.6942C40.7892 45.0756 40.8732 44.4664 40.9549 43.8572C41.4778 44.8259 41.5478 45.8716 41.6108 46.9873Z" fill="#404D31"/>
<path d="M36.8187 29.1288C36.604 28.0271 36.632 26.9814 36.8864 25.9403C36.9168 25.9333 36.9494 25.9263 36.9798 25.9193C37.1408 26.5075 37.2996 27.0981 37.4723 27.726C38.0768 27.4669 38.6604 27.2171 39.2463 26.9673C39.2626 26.9977 39.2789 27.028 39.2953 27.0607C38.588 27.8707 37.7454 28.5149 36.8187 29.1288Z" fill="#404D31"/>
<path d="M25.4132 10.2267C25.8707 10.4391 26.3329 10.6421 26.7857 10.8639C27.1452 11.0413 27.1685 11.039 27.2595 10.6351C27.3459 10.2547 27.4276 9.87421 27.5186 9.49374C27.549 9.37003 27.6003 9.24865 27.6774 9.13428C27.9645 10.2033 27.9761 11.2747 27.8711 12.4324C26.9281 11.7742 26.0341 11.1743 25.3525 10.327C25.3712 10.292 25.3922 10.2593 25.4109 10.2243L25.4132 10.2267Z" fill="#404D31"/>
<path d="M33.3782 57.9047C32.4492 57.2931 31.6043 56.6279 30.8877 55.8156C30.904 55.7829 30.918 55.7503 30.9344 55.7176C31.2962 55.8646 31.658 56.0117 32.0174 56.1611C32.2392 56.2544 32.4609 56.3501 32.6827 56.4458C32.7527 56.2288 32.8227 56.0117 32.8904 55.7946C33.0001 55.4468 33.1075 55.099 33.2219 54.7279C33.5183 55.2111 33.565 56.2544 33.3782 57.9047Z" fill="#404D31"/>
<path d="M25.8828 15.4411C26.2516 15.7959 26.6181 16.1484 26.9869 16.5032C27.2506 16.7553 27.2856 16.7389 27.47 16.4331C27.7431 15.9803 28.0396 15.5438 28.3757 15.0233C28.4107 15.7819 28.0676 16.9187 27.463 18.1651C26.9775 17.8803 26.0042 16.2908 25.8851 15.4411H25.8828Z" fill="#404D31"/>
<path d="M11.1357 22.0237C10.146 22.4649 9.20531 22.9434 8.07324 22.9877C8.32533 22.7963 8.57509 22.6026 8.82951 22.4159C9.08393 22.2291 9.34303 22.0494 9.59511 21.872C9.10727 21.3772 8.66378 20.9267 8.22263 20.4785L8.28332 20.4038C9.32669 20.7423 10.223 21.3468 11.138 22.0214L11.1357 22.0237Z" fill="#404D31"/>
<path d="M23.4296 32.0073C22.853 31.0853 22.5193 30.0863 22.3115 29.0405C22.3442 29.0195 22.3792 28.9985 22.4119 28.9799C22.776 29.4817 23.1402 29.9812 23.4926 30.4691C23.9454 30.0186 24.4006 29.5657 24.8768 29.0896C24.9375 29.6101 24.1929 31.0829 23.4273 32.0073H23.4296Z" fill="#404D31"/>
<path d="M30.9829 50.0498C30.8406 51.1352 30.3924 52.1108 29.9302 53.1169C29.2557 52.2112 28.6511 51.3219 28.4014 50.2155C28.7772 50.5913 29.16 50.9578 29.5241 51.3452C29.7599 51.595 29.8135 51.5997 30.0096 51.3079C30.3037 50.8667 30.6071 50.4326 30.9059 49.9961L30.9853 50.0498H30.9829Z" fill="#404D31"/>
<path d="M42.4906 25.31C41.3445 25.1139 40.3922 24.5467 39.4375 23.9095C40.4389 23.3679 41.4239 22.9221 42.5373 22.7891C42.0261 23.1719 41.5149 23.557 40.9734 23.9631C41.4752 24.409 41.9817 24.8595 42.4883 25.31H42.4906Z" fill="#404D31"/>
<path d="M11.4279 24.5346C11.9904 24.7704 12.5506 25.0061 13.1458 25.2559C13.3069 24.649 13.4609 24.0678 13.615 23.4866C13.6523 23.4912 13.692 23.4959 13.7294 23.5006C13.9838 24.5089 13.9628 25.5313 13.8484 26.6143C12.8587 26.0822 12.0674 25.3959 11.3672 24.6C11.3882 24.5766 11.4069 24.5533 11.4279 24.5323V24.5346Z" fill="#404D31"/>
<path d="M43.41 42.044C43.8605 41.6029 44.3017 41.1734 44.7405 40.7439C44.7638 40.7626 44.7895 40.7813 44.8129 40.7999C44.5001 41.8176 43.9399 42.6999 43.256 43.6079C42.8102 42.5879 42.3457 41.6589 42.2383 40.6085L42.334 40.5502C42.6794 41.0287 43.0226 41.5072 43.41 42.0464V42.044Z" fill="#404D31"/>
<path d="M22.1577 35.1347C21.2334 34.6586 20.3091 34.1847 19.3848 33.7086C19.4011 33.6619 19.4198 33.6129 19.4361 33.5662C20.0523 33.6759 20.6686 33.7856 21.3128 33.9C21.4108 33.2487 21.2288 32.6045 21.5065 31.9509C21.9757 32.9826 22.1484 34.0143 22.2511 35.0577C22.2184 35.0834 22.1858 35.109 22.1554 35.1347H22.1577Z" fill="#404D31"/>
<path d="M23.4299 37.6831C23.7123 38.6938 23.9224 39.7115 23.8757 40.8949C22.9374 40.3137 22.0644 39.7745 21.1914 39.2353C21.2124 39.184 21.2311 39.1326 21.2521 39.0813C21.8333 39.2237 22.4168 39.3637 23.0214 39.5108C23.1171 38.9086 23.2198 38.2853 23.3202 37.6598C23.3575 37.6668 23.3949 37.6738 23.4322 37.6808L23.4299 37.6831Z" fill="#404D31"/>
<path d="M27.1341 35.1342C26.3965 36.0189 25.5235 36.6257 24.5782 37.2256C24.4428 36.1332 24.4615 35.0852 24.8092 34.0488C24.9189 34.553 25.0497 35.0525 25.1314 35.5614C25.1757 35.8415 25.2737 35.8695 25.5048 35.7668C25.932 35.5777 26.3661 35.405 26.8003 35.2276C26.889 35.1926 26.9847 35.1762 27.1341 35.1342Z" fill="#404D31"/>
</svg>
